<svg width="88" height="88" viewBox="0 0 88 88" fill="none" xmlns="http://www.w3.org/2000/svg">
<path d="M44 73.3335C48.5834 73.3335 52.4792 71.7293 55.6875 68.521C58.8959 65.3127 60.5 61.4168 60.5 56.8335C60.5 52.2502 58.8959 48.3543 55.6875 45.146C52.4792 41.9377 48.5834 40.3335 44 40.3335C39.4167 40.3335 35.5209 41.9377 32.3125 45.146C29.1042 48.3543 27.5 52.2502 27.5 56.8335C27.5 61.4168 29.1042 65.3127 32.3125 68.521C35.5209 71.7293 39.4167 73.3335 44 73.3335ZM33.275 35.5668C34.4973 34.8946 35.7959 34.3599 37.1709 33.9627C38.5459 33.5654 39.9362 33.3057 41.3417 33.1835L32.0834 14.6668H22.9167L33.275 35.5668ZM54.725 35.5668L65.175 14.6668H55.9167L48.125 30.2502L49.8667 33.7335C50.7223 33.9779 51.5473 34.2377 52.3417 34.5127C53.1362 34.7877 53.9306 35.1391 54.725 35.5668ZM23.4667 68.9335C22.4278 67.1613 21.6181 65.2516 21.0375 63.2043C20.457 61.1571 20.1667 59.0335 20.1667 56.8335C20.1667 54.6335 20.457 52.5099 21.0375 50.4627C21.6181 48.4154 22.4278 46.5057 23.4667 44.7335C20.9 45.5891 18.7917 47.1016 17.1417 49.271C15.4917 51.4404 14.6667 53.9613 14.6667 56.8335C14.6667 59.7057 15.4917 62.2266 17.1417 64.396C18.7917 66.5654 20.9 68.0779 23.4667 68.9335ZM64.5334 68.9335C67.1 68.0779 69.2084 66.5654 70.8584 64.396C72.5084 62.2266 73.3334 59.7057 73.3334 56.8335C73.3334 53.9613 72.5084 51.4404 70.8584 49.271C69.2084 47.1016 67.1 45.5891 64.5334 44.7335C65.5723 46.5057 66.382 48.4154 66.9625 50.4627C67.5431 52.5099 67.8334 54.6335 67.8334 56.8335C67.8334 59.0335 67.5431 61.1571 66.9625 63.2043C66.382 65.2516 65.5723 67.1613 64.5334 68.9335ZM44 80.6668C41.5556 80.6668 39.2181 80.3154 36.9875 79.6127C34.757 78.9099 32.6945 77.9474 30.8 76.7252C30.25 76.8474 29.7 76.9238 29.15 76.9543C28.6 76.9849 28.0195 77.0002 27.4084 77.0002C21.8473 77.0002 17.1112 75.0446 13.2 71.1335C9.28893 67.2224 7.33337 62.4863 7.33337 56.9252C7.33337 51.6085 9.1056 47.0557 12.65 43.2668C16.1945 39.4779 20.5639 37.3696 25.7584 36.9418L11 7.3335H36.6667L44 22.0002L51.3334 7.3335H77L62.3334 36.7585C67.5278 37.2474 71.882 39.3863 75.3959 43.1752C78.9098 46.9641 80.6667 51.5168 80.6667 56.8335C80.6667 62.4557 78.7112 67.2224 74.8 71.1335C70.8889 75.0446 66.1223 77.0002 60.5 77.0002C59.95 77.0002 59.3848 76.9849 58.8042 76.9543C58.2237 76.9238 57.6584 76.8474 57.1084 76.7252C55.2139 77.9474 53.1667 78.9099 50.9667 79.6127C48.7667 80.3154 46.4445 80.6668 44 80.6668ZM37.2167 66.9168L39.7834 58.5752L33 53.7168H41.3417L44 44.9168L46.6584 53.7168H55L48.2167 58.5752L50.7834 66.9168L44 61.7835L37.2167 66.9168Z" fill="white"/>
</svg>
