<svg width="24" height="24" viewBox="0 0 24 24" fill="none" xmlns="http://www.w3.org/2000/svg">
<g clip-path="url(#clip0_2_603)">
<path d="M12.0009 0.133545C5.44075 0.133545 0.12207 5.45222 0.12207 12.0124C0.12207 17.9405 4.4654 22.854 10.1452 23.7486V15.4469H7.12771V12.0124H10.1452V9.39519C10.1452 6.41569 11.9189 4.77269 14.6311 4.77269C15.9308 4.77269 17.2922 5.00435 17.2922 5.00435V7.92564H15.7906C14.3175 7.92564 13.8565 8.84277 13.8565 9.78248V12.01H17.1485L16.6222 15.4445H13.8565V23.7462C19.5364 22.8564 23.8797 17.9417 23.8797 12.0124C23.8797 5.45222 18.561 0.133545 12.0009 0.133545Z" fill="#052838"/>
</g>
<defs>
<clipPath id="clip0_2_603">
<rect width="24" height="24" fill="white"/>
</clipPath>
</defs>
</svg>
